<?xml version="1.0" standalone="no"?>
<!DOCTYPE svg PUBLIC "-//W3C//DTD SVG 20010904//EN"
 "http://www.w3.org/TR/2001/REC-SVG-20010904/DTD/svg10.dtd">
<svg version="1.0" xmlns="http://www.w3.org/2000/svg"
 width="512.000000pt" height="512.000000pt" viewBox="0 0 512.000000 512.000000"
 preserveAspectRatio="xMidYMid meet">

<g transform="translate(0.000000,512.000000) scale(0.100000,-0.100000)"
fill="#000000" stroke="none">
<path d="M400 4996 c-193 -55 -339 -206 -385 -397 -22 -96 -22 -1852 0 -1948
22 -93 71 -177 145 -251 74 -74 158 -123 251 -145 97 -23 1196 -22 1240 1 31
16 59 66 59 105 0 11 5 19 11 17 6 -2 150 -304 320 -672 l309 -669 0 -378 0
-377 26 -31 c34 -41 167 -106 259 -126 47 -11 104 -16 149 -13 235 11 511 302
602 634 22 81 29 281 15 401 -17 135 -63 349 -111 514 -22 76 -40 141 -40 144
0 3 300 5 668 5 531 1 683 4 747 15 112 20 212 72 295 154 189 186 212 464 56
680 l-33 47 30 34 c46 55 88 154 100 236 26 177 -54 356 -203 457 -25 16 -46
31 -48 32 -2 2 7 31 19 66 46 134 22 299 -60 419 -34 49 -106 117 -156 145
-16 10 -16 14 4 79 39 127 23 278 -42 389 -61 104 -206 203 -332 227 -43 8
-358 10 -1135 8 l-1075 -4 -107 -26 c-60 -15 -151 -44 -205 -66 l-96 -38 -30
58 c-61 123 -184 225 -321 267 -65 20 -89 21 -475 20 -295 -1 -418 -4 -451
-13z m912 -229 c62 -30 115 -83 150 -149 l23 -43 3 -1063 2 -1063 -513 3 -512
3 -67 33 c-76 37 -120 82 -157 162 l-26 55 0 915 c0 859 1 918 18 967 20 58
92 145 141 170 77 40 98 42 496 40 l385 -2 57 -28z m3003 -205 c60 -28 109
-73 138 -127 17 -31 22 -58 22 -115 0 -82 -16 -120 -77 -193 -59 -69 -37 -156
44 -178 91 -24 128 -42 167 -79 54 -52 73 -92 78 -165 7 -81 -9 -132 -62 -201
-35 -45 -45 -66 -45 -95 0 -55 37 -95 101 -108 139 -30 223 -128 222 -261 0
-95 -45 -174 -128 -226 -92 -58 -96 -145 -10 -204 165 -114 187 -356 43 -485
-22 -21 -66 -49 -97 -64 l-56 -26 -795 -5 c-842 -5 -821 -4 -854 -52 -25 -35
-20 -71 34 -234 129 -395 184 -728 147 -901 -34 -157 -97 -272 -217 -394 -90
-90 -153 -129 -211 -129 -42 0 -123 21 -166 44 l-33 17 0 354 0 355 -326 707
c-180 390 -335 717 -345 728 -10 12 -55 38 -99 60 l-80 39 0 907 0 906 58 31
c97 51 234 89 412 116 14 2 489 3 1055 2 l1030 -1 50 -23z"/>
</g>
</svg>
